<svg height='100px' width='100px'  fill="#bb86fc" xmlns="http://www.w3.org/2000/svg" xmlns:xlink="http://www.w3.org/1999/xlink" version="1.1" x="0px" y="0px" viewBox="159 -158 417 417" enable-background="new 159 -158 417 417" xml:space="preserve"><circle cx="367.5" cy="-25.1" r="15.2"></circle><path d="M381.8,14.1l19.1,47.3l14.2-5.7L392.2-1.1c-1.2-2.9-4-4.8-7.1-4.8h-8.5h-6.7h-0.1h-4.5h-0.1h-6.7h-8.5  c-3.1,0-5.9,1.9-7.1,4.8l-22.9,56.8l14.2,5.7l19.1-47.3l2.4,1L329.8,84h20.6l11.1,59h3.6h4.5h3.6l11.1-59h20.6l-25.7-68.9  L381.8,14.1z"></path><polygon points="552.5,37.1 446.5,-10.1 446.5,16.7 522,50 446.5,83.8 446.5,110.6 552.5,63.9 "></polygon><polygon points="183,63.9 289,110.6 289,83.8 213.5,50 289,16.7 289,-10.1 183,37.1 "></polygon></svg>